<?xml version="1.0" encoding="UTF-8"?>
<rss version="2.0" xmlns:torrent="http://xmlns.ezrss.it/0.1/">
    <channel>
        <title>movies torrents RSS feed - KickassTorrents</title>
        <link>http://kickass.to/</link>
        <description>movies torrents RSS feed</description>
        <item>
            <title>Heaven Knows Mr Allison 1957 720p BluRay X264-AMIABLE</title>
            <description><![CDATA[[center][size=100]
[img]http://www.imgclik.com/images/58809762372628111133.jpg[/img]

[color=blue][b]PLOT:........ [/b][/color]A Marine and a Nun, both shipwrecked on a Pacific Island, find solace in one another as the two wait out the war.


[color=blue][b]
ACTORS:........ [/b][/color]Deborah Kerr, Robert Mitchum,


[color=blue][b]
RELEASED:........ [/b][/color] 13 March 1957


[color=blue][b]
IMDB:........ [/b][/color]http://www.imdb.com/title/tt0050490/


[i][color=blue][b]
SIZE:........ [/b][/color] 5868960035 bytes (5.47 GiB),
[color=blue][b]DURATION:............ [/b][/color] 01:46:09,
[color=blue][b]AVG-BITRATE:......... [/b][/color] 7372 kb/s
[color=blue][b]AUDIO:....... [/b][/color] dts, 48000 Hz, mono (eng)
[color=blue][b]VIDEO:....... [/b][/color] h264, yuv420p, 1280x544, 23.98 fps(r) (eng)
Subtitles: eng eng
[/i]

[url=http://www.imgclik.com/viewer.php?file=65988118455170830994.jpg][img]http://www.imgclik.com/images/65988118455170830994_thumb.jpg[/img][/url]

[color=blue][b][url=http://www.imgclik.com/viewer.php?file=09014841228523009344.jpg]Screens[/url][/b][/color]
 [color=blue][b][url=http://www.imgclik.com/viewer.php?file=96906897111736549891.jpg]Screens[/url][/b][/color]

[color=blue][b][url=http://www.imgclik.com/viewer.php?file=93639482513382377029.jpg]Screens[/url][/b][/color]
 [color=blue][b][url=http://www.imgclik.com/viewer.php?file=13895794077215425330.jpg]Screens[/url][/b][/color]
 [color=blue][b][url=http://www.imgclik.com/viewer.php?file=51024637721300529452.jpg]Screens[/url][/b][/color]




[color=green][b]I KNOW YOU WANT IT[/b][/color]


[color=green][b]DOWNLOAD AND ENJOY.[/b][/color]



[color=silver][b]KEEP IT FOR LONG SEEDING TO HELP OTHERS[/b][/color]
[/size]
[size=100][color=silver]
 Thanks to : AMIABLE
 Movie Share [/color][/size][/center]]]></description>
            <category>Movies</category>
            <author>http://kickass.to/user/hotpena/</author>        <link>http://kickass.to/heaven-knows-mr-allison-1957-720p-bluray-x264-amiable-t9310684.html</link>
            <guid>http://kickass.to/heaven-knows-mr-allison-1957-720p-bluray-x264-amiable-t9310684.html</guid>
            <pubDate>Wed, 09 Jul 2014 09:58:01 +0000</pubDate>
            <torrent:contentLength>5873910859</torrent:contentLength>
            <torrent:infoHash>92E55FF72C2856D5F29140D0527594579B102388</torrent:infoHash>
            <torrent:magnetURI><![CDATA[magnet:?xt=urn:btih:92E55FF72C2856D5F29140D0527594579B102388&dn=heaven+knows+mr+allison+1957+720p+bluray+x264+amiable&tr=udp%3A%2F%2Fopen.demonii.com%3A1337%2Fannounce]]></torrent:magnetURI>
            <torrent:seeds>0</torrent:seeds>
            <torrent:peers>0</torrent:peers>
            <torrent:verified>1</torrent:verified>
            <torrent:fileName>heaven.knows.mr.allison.1957.720p.bluray.x264.amiable.torrent</torrent:fileName>
            <enclosure url="http://torcache.net/torrent/92E55FF72C2856D5F29140D0527594579B102388.torrent?title=[kickass.to]heaven.knows.mr.allison.1957.720p.bluray.x264.amiable" length="5873910859" type="application/x-bittorrent" />
        </item>
        <item>
            <title>Transcendence 2014 FRENCH BRRip XviD AC3-RiDDiCK</title>
            <description><![CDATA[[center][img]http://images.allocine.fr/pictures/14/05/05/15/38/543364.jpg[/img]

Dans un futur proche, un groupe de scientifiques tente de concevoir le premier ordinateur doté d’une conscience et capable de réfléchir de manière autonome. Ils doivent faire face aux attaques de terroristes anti-technologies qui voient dans ce projet une menace pour l’espèce humaine. Lorsque le scientifique à la tête du projet est assassiné, sa femme se sert de l’avancée de ses travaux pour « transcender » l’esprit de son mari dans le premier super ordinateur de l’histoire. Pouvant désormais contrôler tous les réseaux liés à internet, il devient ainsi quasi omnipotent. Mais comment l’arrêter s’il perdait ce qui lui reste d’humanité ?[/center]]]></description>
            <category>Movies</category>
            <author>http://kickass.to/user/shiftup/</author>        <link>http://kickass.to/transcendence-2014-french-brrip-xvid-ac3-riddick-t9310680.html</link>
            <guid>http://kickass.to/transcendence-2014-french-brrip-xvid-ac3-riddick-t9310680.html</guid>
            <pubDate>Wed, 09 Jul 2014 09:56:46 +0000</pubDate>
            <torrent:contentLength>1466534746</torrent:contentLength>
            <torrent:infoHash>EFD781C107BC715BFA6C50A05B1E7E38B1E4D579</torrent:infoHash>
            <torrent:magnetURI><![CDATA[magnet:?xt=urn:btih:EFD781C107BC715BFA6C50A05B1E7E38B1E4D579&dn=transcendence+2014+french+brrip+xvid+ac3+riddick&tr=http%3A%2F%2Fthink-geek.net%3A2710%2F899bc4a2a9720e25d2452c380181023f%2Fannounce&tr=udp%3A%2F%2Fopen.demonii.com%3A1337]]></torrent:magnetURI>
            <torrent:seeds>0</torrent:seeds>
            <torrent:peers>0</torrent:peers>
            <torrent:verified>0</torrent:verified>
            <torrent:fileName>transcendence.2014.french.brrip.xvid.ac3.riddick.torrent</torrent:fileName>
            <enclosure url="http://torcache.net/torrent/EFD781C107BC715BFA6C50A05B1E7E38B1E4D579.torrent?title=[kickass.to]transcendence.2014.french.brrip.xvid.ac3.riddick" length="1466534746" type="application/x-bittorrent" />
        </item>
        <item>
            <title>Papillon 1973 1080p BRRip x264 AAC-m2g</title>
            <description><![CDATA[[center][size=100][b]Papillon 1973 1080p BRRip x264 AAC-m2g [/b]
[img]http://www.imglooks.com/images/97911731497064693667_thumb.jpg[/img]




[url=http://www.imdb.com/title/tt0070511/][img]http://www.imglooks.com/images/66247179518916305479.png[/img][/url]
[img]http://www.imglooks.com/images/49560063213332559541.png[/img]
biography, crime, drama,

[img]http://www.imglooks.com/images/05764739449217974080.png[/img]
A man befriends a fellow criminal as the two of them begin serving their sentence on a dreadful prison island, which inspires the man to plot his escape.

[img]http://www.imglooks.com/images/20302689810315439598.png[/img]
Steve McQueen, Dustin Hoffman, Victor Jory,

[img]http://www.imglooks.com/images/54592829747849866375.png[/img]
 16 December 1973

[img]http://www.imglooks.com/images/88035881604216794341.png[/img]

[i]Size: 24669518 bytes (23.53 MiB), duration: 00:01:57, avg.bitrate: 1687 kb/s
Audio: aac, 48000 Hz, 5:1
Video: h264, yuv420p, 1920x800, 23.98 fps(r) (eng)
[/i]
[img]http://www.imglooks.com/images/00100251711613496204.png[/img]

[url=http://www.imglooks.com/viewer.php?file=33463983531800706995.jpg][img]http://www.imglooks.com/images/33463983531800706995.jpg[/img][/url]


[img]http://www.imglooks.com/images/88035881604216794341.png[/img]

[i]Size: 3223537122 bytes (3.00 GiB), duration: 02:30:47, avg.bitrate: 2850 kb/s
Audio: aac, 48000 Hz, 5:1
Video: h264, yuv420p, 1920x800, 23.98 fps(r) (eng)
[/i]
[img]http://www.imglooks.com/images/00100251711613496204.png[/img]

[url=http://www.imglooks.com/viewer.php?file=57708911749919652246.jpg][img]http://www.imglooks.com/images/57708911749919652246.jpg[/img][/url]

[url=http://www.imglooks.com/viewer.php?file=62390024155261754315.jpg][color=blue][b]MORE SCREENS[/b][/color][/url]

[url=http://www.imglooks.com/viewer.php?file=29857165305150989052.jpg][color=blue][b]MORE SCREENS[/b][/color][/url]


[url=http://www.imglooks.com/viewer.php?file=59142475403735167343.jpg][color=blue][b]MORE SCREENS[/b][/color][/url]



[img]http://www.imglooks.com/images/43495332458845760398.png[/img]
[color=red][b]KEEP IN TOUCH FOR LATEST UPLOAD..
 Your support encourage me...[/b][/color]
Follow Us on
[url=https://www.facebook.com/pages/Download-from-harks/124201754417002][img]https://fbstatic-a.akamaihd.net/rsrc.php/v2/y6/r/Wk7lE1Bji1R.png[/img][/url][/size][/center]]]></description>
            <category>Movies</category>
            <author>http://kickass.to/user/harks87/</author>        <link>http://kickass.to/papillon-1973-1080p-brrip-x264-aac-m2g-t9310679.html</link>
            <guid>http://kickass.to/papillon-1973-1080p-brrip-x264-aac-m2g-t9310679.html</guid>
            <pubDate>Wed, 09 Jul 2014 09:56:26 +0000</pubDate>
            <torrent:contentLength>3248209067</torrent:contentLength>
            <torrent:infoHash>25D18FF63E7BA81B3C8604DDBD62DFF931422FD3</torrent:infoHash>
            <torrent:magnetURI><![CDATA[magnet:?xt=urn:btih:25D18FF63E7BA81B3C8604DDBD62DFF931422FD3&dn=papillon+1973+1080p+brrip+x264+aac+m2g&tr=udp%3A%2F%2Fopen.demonii.com%3A1337%2Fannounce]]></torrent:magnetURI>
            <torrent:seeds>0</torrent:seeds>
            <torrent:peers>0</torrent:peers>
            <torrent:verified>1</torrent:verified>
            <torrent:fileName>papillon.1973.1080p.brrip.x264.aac.m2g.torrent</torrent:fileName>
            <enclosure url="http://torcache.net/torrent/25D18FF63E7BA81B3C8604DDBD62DFF931422FD3.torrent?title=[kickass.to]papillon.1973.1080p.brrip.x264.aac.m2g" length="3248209067" type="application/x-bittorrent" />
        </item>
        <item>
            <title>FIFA World Cup 2014 Semi Final Brazil.vs.Germany 08 07 2014 720p HDTV x264</title>
            <description><![CDATA[Gênero: Esporte
Ano de Lançamento: 2014
Idioma Original: Português (Globo)
Audio: Nacional
Duração: 2 hora(s)
Resolução: 1280 x 720 pixels
Tamanho: 3.08 GB
Qualidade: HDTV
3D: Não
Extensão: MKV
Codec de Vídeo: h.264 / AVC
Codec de Audio: AC3
Qualidade de Audio: 10
Qualidade de Video: 10]]></description>
            <category>Movies</category>
            <author>http://kickass.to/user/SpeedBrasil/</author>        <link>http://kickass.to/fifa-world-cup-2014-semi-final-brazil-vs-germany-08-07-2014-720p-hdtv-x264-t9310676.html</link>
            <guid>http://kickass.to/fifa-world-cup-2014-semi-final-brazil-vs-germany-08-07-2014-720p-hdtv-x264-t9310676.html</guid>
            <pubDate>Wed, 09 Jul 2014 09:55:51 +0000</pubDate>
            <torrent:contentLength>3310834126</torrent:contentLength>
            <torrent:infoHash>2F56D49D7BFE9660418E82AEEE321FF29FCAF21B</torrent:infoHash>
            <torrent:magnetURI><![CDATA[magnet:?xt=urn:btih:2F56D49D7BFE9660418E82AEEE321FF29FCAF21B&dn=fifa+world+cup+2014+semi+final+brazil+vs+germany+08+07+2014+720p+hdtv+x264&tr=http%3A%2F%2Ftracker.br2share.com%2Fannounce.php&tr=udp%3A%2F%2Fopen.demonii.com%3A1337]]></torrent:magnetURI>
            <torrent:seeds>0</torrent:seeds>
            <torrent:peers>0</torrent:peers>
            <torrent:verified>0</torrent:verified>
            <torrent:fileName>fifa.world.cup.2014.semi.final.brazil.vs.germany.08.07.2014.720p.hdtv.x264.torrent</torrent:fileName>
            <enclosure url="http://torcache.net/torrent/2F56D49D7BFE9660418E82AEEE321FF29FCAF21B.torrent?title=[kickass.to]fifa.world.cup.2014.semi.final.brazil.vs.germany.08.07.2014.720p.hdtv.x264" length="3310834126" type="application/x-bittorrent" />
        </item>
        <item>
            <title>Heaven Knows Mr Allison 1957 720p BluRay X264-AMIABLE</title>
            <description><![CDATA[[center][size=100][b]Heaven Knows Mr Allison 1957 720p BluRay X264-AMIABLE [/b]
[img]http://www.imglooks.com/images/22518170951913439026_thumb.jpg[/img]




[url=http://www.imdb.com/title/tt0050490/][img]http://www.imglooks.com/images/66247179518916305479.png[/img][/url]
[img]http://www.imglooks.com/images/49560063213332559541.png[/img]
action, adventure, drama,

[img]http://www.imglooks.com/images/05764739449217974080.png[/img]
A Marine and a Nun, both shipwrecked on a Pacific Island, find solace in one another as the two wait out the war.

[img]http://www.imglooks.com/images/20302689810315439598.png[/img]
Robert Mitchum, Deborah Kerr,

[img]http://www.imglooks.com/images/54592829747849866375.png[/img]
 13 March 1957

[img]http://www.imglooks.com/images/88035881604216794341.png[/img]

[i]Size: 5868960035 bytes (5.47 GiB), duration: 01:46:09, avg.bitrate: 7372 kb/s
Audio: dts, 48000 Hz, mono (eng)
Video: h264, yuv420p, 1280x544, 23.98 fps(r) (eng)
Subtitles: eng eng
[/i]
[img]http://www.imglooks.com/images/00100251711613496204.png[/img]

[url=http://www.imglooks.com/viewer.php?file=65459536586706604935.jpg][img]http://www.imglooks.com/images/65459536586706604935.jpg[/img][/url]

[url=http://www.imglooks.com/viewer.php?file=57173824932437714047.jpg][color=blue][b]MORE SCREENS[/b][/color][/url]

[url=http://www.imglooks.com/viewer.php?file=50708516817645933720.jpg][color=blue][b]MORE SCREENS[/b][/color][/url]


[url=http://www.imglooks.com/viewer.php?file=85898478878712011419.jpg][color=blue][b]MORE SCREENS[/b][/color][/url]



[img]http://www.imglooks.com/images/43495332458845760398.png[/img]
[color=red][b]KEEP IN TOUCH FOR LATEST UPLOAD..
 Your support encourage me...[/b][/color]
Follow Us on
[url=https://www.facebook.com/pages/Download-from-harks/124201754417002][img]https://fbstatic-a.akamaihd.net/rsrc.php/v2/y6/r/Wk7lE1Bji1R.png[/img][/url][/size][/center]]]></description>
            <category>Movies</category>
            <author>http://kickass.to/user/harks87/</author>        <link>http://kickass.to/heaven-knows-mr-allison-1957-720p-bluray-x264-amiable-t9310669.html</link>
            <guid>http://kickass.to/heaven-knows-mr-allison-1957-720p-bluray-x264-amiable-t9310669.html</guid>
            <pubDate>Wed, 09 Jul 2014 09:54:27 +0000</pubDate>
            <torrent:contentLength>5870490950</torrent:contentLength>
            <torrent:infoHash>4351CDBDC612E24934DA4AC3B59B881B38F577A7</torrent:infoHash>
            <torrent:magnetURI><![CDATA[magnet:?xt=urn:btih:4351CDBDC612E24934DA4AC3B59B881B38F577A7&dn=heaven+knows+mr+allison+1957+720p+bluray+x264+amiable&tr=udp%3A%2F%2Fopen.demonii.com%3A1337%2Fannounce]]></torrent:magnetURI>
            <torrent:seeds>0</torrent:seeds>
            <torrent:peers>0</torrent:peers>
            <torrent:verified>1</torrent:verified>
            <torrent:fileName>heaven.knows.mr.allison.1957.720p.bluray.x264.amiable.torrent</torrent:fileName>
            <enclosure url="http://torcache.net/torrent/4351CDBDC612E24934DA4AC3B59B881B38F577A7.torrent?title=[kickass.to]heaven.knows.mr.allison.1957.720p.bluray.x264.amiable" length="5870490950" type="application/x-bittorrent" />
        </item>
        <item>
            <title>the fast and the furious 5 greek subs 720p. no subs download need</title>
            <description><![CDATA[i tenia exei idi egatestimenous tous greek subs den xreiazetai na katebasete dikous sas ]]></description>
            <category>Movies</category>
            <author>http://kickass.to/user/mpoympanos/</author>        <link>http://kickass.to/the-fast-and-the-furious-5-greek-subs-720p-no-subs-download-need-t9310664.html</link>
            <guid>http://kickass.to/the-fast-and-the-furious-5-greek-subs-720p-no-subs-download-need-t9310664.html</guid>
            <pubDate>Wed, 09 Jul 2014 09:51:20 +0000</pubDate>
            <torrent:contentLength>4035365772</torrent:contentLength>
            <torrent:infoHash>150B4BE0AF5E61CB0C3A7E149AB547924EE2BBB8</torrent:infoHash>
            <torrent:magnetURI><![CDATA[magnet:?xt=urn:btih:150B4BE0AF5E61CB0C3A7E149AB547924EE2BBB8&dn=the+fast+and+the+furious+5+greek+subs+720p+no+subs+download+need&tr=udp%3A%2F%2Fopen.demonii.com%3A1337%2Fannounce]]></torrent:magnetURI>
            <torrent:seeds>0</torrent:seeds>
            <torrent:peers>0</torrent:peers>
            <torrent:verified>0</torrent:verified>
            <torrent:fileName>the.fast.and.the.furious.5.greek.subs.720p.no.subs.download.need.torrent</torrent:fileName>
            <enclosure url="http://torcache.net/torrent/150B4BE0AF5E61CB0C3A7E149AB547924EE2BBB8.torrent?title=[kickass.to]the.fast.and.the.furious.5.greek.subs.720p.no.subs.download.need" length="4035365772" type="application/x-bittorrent" />
        </item>
        <item>
            <title>Transcendence 2014 BluRay 480p AsOri (AtlaN64)</title>
            <description><![CDATA[[center][img]http://atlan64.com/wp-content/uploads/2014/05/astaker-ahwramzda-135-1000x100011112.jpg[/img]

[img]http://atlan64.com/wp-content/uploads/2014/07/Transcendence2014Poster-201x300.jpg[/img]

A scientist’s drive for artificial intelligence, takes on dangerous implications when his consciousness is uploaded into one such program.

Genre: Drama | Mystery | Sci-Fi

Size: 350 MB

Quality: 480p

[color=red][url=&quot;http://5.9.181.176/Image/Transcendence%202014%20BluRay%20480p%20AsOri%20(AtlaN64.Com)_s.jpg&quot;]Screenshot[/url]
[/color]

Language: English

[color=red][url=&quot;http://www.imdb.com/title/tt2209764/&quot;]IMDB[/url] : 6.4/10[/color][/center]]]></description>
            <category>Movies - Highres Movies</category>
            <author>http://kickass.to/user/atlan64/</author>        <link>http://kickass.to/transcendence-2014-bluray-480p-asori-atlan64-t9310651.html</link>
            <guid>http://kickass.to/transcendence-2014-bluray-480p-asori-atlan64-t9310651.html</guid>
            <pubDate>Wed, 09 Jul 2014 09:44:04 +0000</pubDate>
            <torrent:contentLength>368269768</torrent:contentLength>
            <torrent:infoHash>3F959540071A5F0311D30537260D703400A36D07</torrent:infoHash>
            <torrent:magnetURI><![CDATA[magnet:?xt=urn:btih:3F959540071A5F0311D30537260D703400A36D07&dn=transcendence+2014+bluray+480p+asori+atlan64&tr=udp%3A%2F%2Fopen.demonii.com%3A1337%2Fannounce]]></torrent:magnetURI>
            <torrent:seeds>0</torrent:seeds>
            <torrent:peers>0</torrent:peers>
            <torrent:verified>1</torrent:verified>
            <torrent:fileName>transcendence.2014.bluray.480p.asori.atlan64.torrent</torrent:fileName>
            <enclosure url="http://torcache.net/torrent/3F959540071A5F0311D30537260D703400A36D07.torrent?title=[kickass.to]transcendence.2014.bluray.480p.asori.atlan64" length="368269768" type="application/x-bittorrent" />
        </item>
        <item>
            <title>Heaven.Knows.Mr.Allison.1957.720p.BluRay.X264-AMIABLE</title>
            <description><![CDATA[Heaven.Knows.Mr.Allison.1957.720p.BluRay.X264-AMIABLE

[img]//dyncdn.me/posters2/e/eb1f8d0946ee3a6e40728c9818f74c33e206128e.jpg[/img]

Title: Heaven Knows, Mr. Allison (1957)
IMDB Rating: 7.3/10
Genres: Action , Adventure , Drama , War
Actors: Deborah Kerr , Robert Mitchum
Runtime: 108
Year: 1957
Plot:
In 1944| in South Pacific| the castaway Marine Corporal Allison drifts in a raft to the Tuasiva Island| where he meets Sister Angela. She tells him that she is the
only person in the island and was left behind by the runaway boat to Fiji Island while seeking the local priest. Stranded in the island| but with water| fish and
fruits| their paradisiacal life ends when the Japanese arrive to build a base| forcing Allison and the nun to hide in a cave. The crude marine provides the necessary
supply for their survival and falls in love for the nun.


[mediainfo]

Video
ID : 1
Format : AVC
Format/Info : Advanced Video Codec
Format profile : High@L4.1
Format settings, CABAC : Yes
Format settings, ReFrames : 5 frames
Codec ID : V_MPEG4/ISO/AVC
Duration : 1h 46mn
Bit rate : 6 600 Kbps
Width : 1 280 pixels
Height : 544 pixels
Display aspect ratio : 2.35:1
Frame rate mode : Constant
Frame rate : 23.976 fps
Color space : YUV
Chroma subsampling : 4:2:0
Bit depth : 8 bits
Scan type : Progressive
Bits/(Pixel*Frame) : 0.395
Stream size : 4.79 GiB (88%)
Writing library : x264 core 142 r2431 ac76440
Encoding settings : cabac=1 / ref=5 / deblock=1:-3:-3 / analyse=0x3:0x113 / me=umh / subme=8 / psy=1 / psy_rd=1.00:0.00 / mixed_ref=1 / me_range=16 / chroma_me=1 / trellis=1 / 8x8dct=1 / cqm=0 / deadzone=21,11 / fast_pskip=1 / chroma_qp_offset=-2 / threads=18 / lookahead_threads=3 / sliced_threads=0 / nr=0 / decimate=1 / interlaced=0 / bluray_compat=0 / constrained_intra=0 / bframes=3 / b_pyramid=2 / b_adapt=2 / b_bias=0 / direct=3 / weightb=1 / open_gop=0 / weightp=2 / keyint=240 / keyint_min=24 / scenecut=40 / intra_refresh=0 / rc_lookahead=50 / rc=2pass / mbtree=1 / bitrate=6600 / ratetol=1.0 / qcomp=0.60 / qpmin=0 / qpmax=69 / qpstep=4 / cplxblur=20.0 / qblur=0.5 / ip_ratio=1.40 / aq=1:1.00
Language : English
Default : Yes
Forced : No

Audio
ID : 2
Format : DTS
Format/Info : Digital Theater Systems
Mode : 16
Format settings, Endianness : Big
Codec ID : A_DTS
Duration : 1h 46mn
Bit rate mode : Constant
Bit rate : 768 Kbps
Channel(s) : 1 channel
Channel positions : Front: C
Sampling rate : 48.0 KHz
Bit depth : 24 bits
Compression mode : Lossy
Stream size : 583 MiB (10%)
Language : English
Default : Yes
Forced : No

Text #1
ID : 3
Format : UTF-8
Codec ID : S_TEXT/UTF8
Codec ID/Info : UTF-8 Plain Text
Title : SDH
Language : English
Default : No
Forced : No

Text #2
ID : 4
Format : UTF-8
Codec ID : S_TEXT/UTF8
Codec ID/Info : UTF-8 Plain Text
Language : English
Default : No
Forced : No

Menu
00:00:00.000 : en:00:00:00.000
00:09:53.134 : en:00:09:53.134
00:15:49.031 : en:00:15:49.031
00:24:58.956 : en:00:24:58.956
00:35:58.615 : en:00:35:58.615
00:45:33.731 : en:00:45:33.731
00:55:17.814 : en:00:55:17.814
01:05:54.075 : en:01:05:54.075
01:13:41.584 : en:01:13:41.584
01:26:56.420 : en:01:26:56.420
01:39:41.976 : en:01:39:41.976
01:45:42.378 : en:01:45:42.378




[/mediainfo]

]]></description>
            <category>Movies</category>
            <author>http://kickass.to/user/TryMeS/</author>        <link>http://kickass.to/heaven-knows-mr-allison-1957-720p-bluray-x264-amiable-t9310645.html</link>
            <guid>http://kickass.to/heaven-knows-mr-allison-1957-720p-bluray-x264-amiable-t9310645.html</guid>
            <pubDate>Wed, 09 Jul 2014 09:41:57 +0000</pubDate>
            <torrent:contentLength>5873794308</torrent:contentLength>
            <torrent:infoHash>EB1F8D0946EE3A6E40728C9818F74C33E206128E</torrent:infoHash>
            <torrent:magnetURI><![CDATA[magnet:?xt=urn:btih:EB1F8D0946EE3A6E40728C9818F74C33E206128E&dn=heaven+knows+mr+allison+1957+720p+bluray+x264+amiable&tr=udp%3A%2F%2F12.rarbg.me%3A80%2Fannounce&tr=udp%3A%2F%2Fopen.demonii.com%3A1337]]></torrent:magnetURI>
            <torrent:seeds>6</torrent:seeds>
            <torrent:peers>22</torrent:peers>
            <torrent:verified>1</torrent:verified>
            <torrent:fileName>heaven.knows.mr.allison.1957.720p.bluray.x264.amiable.torrent</torrent:fileName>
            <enclosure url="http://torcache.net/torrent/EB1F8D0946EE3A6E40728C9818F74C33E206128E.torrent?title=[kickass.to]heaven.knows.mr.allison.1957.720p.bluray.x264.amiable" length="5873794308" type="application/x-bittorrent" />
        </item>
        <item>
            <title>Perros de Batalla [Dvdrip][Castellano</title>
            <category>Movies</category>
            <link>http://kickass.to/perros-de-batalla-dvdrip-castellano-t9310636.html</link>
            <guid>http://kickass.to/perros-de-batalla-dvdrip-castellano-t9310636.html</guid>
            <pubDate>Wed, 09 Jul 2014 09:36:02 +0000</pubDate>
            <torrent:contentLength>1075284853</torrent:contentLength>
            <torrent:infoHash>2739EE7BC8F437DE3F503B19FB8B17FD2C9B2E52</torrent:infoHash>
            <torrent:magnetURI><![CDATA[magnet:?xt=urn:btih:2739EE7BC8F437DE3F503B19FB8B17FD2C9B2E52&dn=perros+de+batalla+dvdrip+castellano&tr=udp%3A%2F%2Fopen.demonii.com%3A1337%2Fannounce]]></torrent:magnetURI>
            <torrent:seeds>4</torrent:seeds>
            <torrent:peers>6</torrent:peers>
            <torrent:verified>0</torrent:verified>
            <torrent:fileName>perros.de.batalla.dvdrip.castellano.torrent</torrent:fileName>
            <enclosure url="http://torcache.net/torrent/2739EE7BC8F437DE3F503B19FB8B17FD2C9B2E52.torrent?title=[kickass.to]perros.de.batalla.dvdrip.castellano" length="1075284853" type="application/x-bittorrent" />
        </item>
        <item>
            <title>Paisa [2014] DVDrip 720p Music Videos (Telugu) - @V!</title>
            <category>Movies - Music videos</category>
            <author>http://kickass.to/user/eswarasai/</author>        <link>http://kickass.to/paisa-2014-dvdrip-720p-music-videos-telugu-v-t9310633.html</link>
            <guid>http://kickass.to/paisa-2014-dvdrip-720p-music-videos-telugu-v-t9310633.html</guid>
            <pubDate>Wed, 09 Jul 2014 09:35:03 +0000</pubDate>
            <torrent:contentLength>700561970</torrent:contentLength>
            <torrent:infoHash>04E12F1C8309405BB0B18946803151F2171C5798</torrent:infoHash>
            <torrent:magnetURI><![CDATA[magnet:?xt=urn:btih:04E12F1C8309405BB0B18946803151F2171C5798&dn=paisa+2014+dvdrip+720p+music+videos+telugu+v&tr=udp%3A%2F%2Fopen.demonii.com%3A1337%2Fannounce]]></torrent:magnetURI>
            <torrent:seeds>6</torrent:seeds>
            <torrent:peers>9</torrent:peers>
            <torrent:verified>0</torrent:verified>
            <torrent:fileName>paisa.2014.dvdrip.720p.music.videos.telugu.v.torrent</torrent:fileName>
            <enclosure url="http://torcache.net/torrent/04E12F1C8309405BB0B18946803151F2171C5798.torrent?title=[kickass.to]paisa.2014.dvdrip.720p.music.videos.telugu.v" length="700561970" type="application/x-bittorrent" />
        </item>
        <item>
            <title>Wings.Sky.Force.Heroes.2014.HDRip.XviD.AC3-EVO</title>
            <description><![CDATA[Wings.Sky.Force.Heroes.2014.HDRip.XviD.AC3-EVO

[img]//dyncdn.me/posters2/c/c3d6522e9728ebdff1a80276cb9bdc4753282a3e.jpg[/img]



[mediainfo]


Format : AVI
Format/Info : Audio Video Interleave
File size : 1.17 GiB
Duration : 1h 22mn
Overall bit rate : 2 036 Kbps
Writing library : VirtualDub build 32593/release

Video
ID : 0
Format : MPEG-4 Visual
Format profile : Advanced Simple@L5
Format settings, BVOP : 2
Format settings, QPel : No
Format settings, GMC : No warppoints
Format settings, Matrix : Default (H.263)
Muxing mode : Packed bitstream
Codec ID : XVID
Codec ID/Hint : XviD
Duration : 1h 22mn
Bit rate : 1 642 Kbps
Width : 720 pixels
Height : 400 pixels
Display aspect ratio : 16:9
Frame rate : 24.000 fps
Color space : YUV
Chroma subsampling : 4:2:0
Bit depth : 8 bits
Scan type : Progressive
Compression mode : Lossy
Bits/(Pixel*Frame) : 0.238
Stream size : 963 MiB (81%)
Writing library : XviD 64

Audio
ID : 1
Format : AC-3
Format/Info : Audio Coding 3
Mode extension : CM (complete main)
Format settings, Endianness : Big
Codec ID : 2000
Duration : 1h 22mn
Bit rate mode : Constant
Bit rate : 384 Kbps
Channel(s) : 6 channels
Channel positions : Front: L C R, Side: L R, LFE
Sampling rate : 48.0 KHz
Bit depth : 16 bits
Compression mode : Lossy
Stream size : 225 MiB (19%)
Alignment : Aligned on interleaves
Interleave, duration : 42 ms (1.00 video frame)
Interleave, preload duration : 512 ms



[/mediainfo]

]]></description>
            <category>Movies</category>
            <author>http://kickass.to/user/TryMeS/</author>        <link>http://kickass.to/wings-sky-force-heroes-2014-hdrip-xvid-ac3-evo-t9310632.html</link>
            <guid>http://kickass.to/wings-sky-force-heroes-2014-hdrip-xvid-ac3-evo-t9310632.html</guid>
            <pubDate>Wed, 09 Jul 2014 09:34:28 +0000</pubDate>
            <torrent:contentLength>1265804545</torrent:contentLength>
            <torrent:infoHash>C3D6522E9728EBDFF1A80276CB9BDC4753282A3E</torrent:infoHash>
            <torrent:magnetURI><![CDATA[magnet:?xt=urn:btih:C3D6522E9728EBDFF1A80276CB9BDC4753282A3E&dn=wings+sky+force+heroes+2014+hdrip+xvid+ac3+evo&tr=udp%3A%2F%2F12.rarbg.me%3A80%2Fannounce&tr=udp%3A%2F%2Fopen.demonii.com%3A1337]]></torrent:magnetURI>
            <torrent:seeds>9</torrent:seeds>
            <torrent:peers>31</torrent:peers>
            <torrent:verified>1</torrent:verified>
            <torrent:fileName>wings.sky.force.heroes.2014.hdrip.xvid.ac3.evo.torrent</torrent:fileName>
            <enclosure url="http://torcache.net/torrent/C3D6522E9728EBDFF1A80276CB9BDC4753282A3E.torrent?title=[kickass.to]wings.sky.force.heroes.2014.hdrip.xvid.ac3.evo" length="1265804545" type="application/x-bittorrent" />
        </item>
        <item>
            <title>Wings.Sky Force.Heroes.2014.720p.WEBRiP.XViD.AC3-LEGi0N</title>
            <description><![CDATA[Wings.Sky Force.Heroes.2014.720p.WEBRiP.XViD.AC3-LEGi0N

[img]//dyncdn.me/posters2/c/c63be49f59ffa6350ebb577c6e54d6a7e59a3750.jpg[/img]



[mediainfo]


Format : AVI
Format/Info : Audio Video Interleave
Format profile : OpenDML
File size : 2.50 GiB
Duration : 1h 22mn
Overall bit rate : 4 357 Kbps
Writing application : VirtualDubMod 1.5.10.2 (build 2540/release)
Writing library : VirtualDubMod build 2540/release

Video
ID : 0
Format : MPEG-4 Visual
Format profile : Advanced Simple@L5
Format settings, BVOP : 2
Format settings, QPel : No
Format settings, GMC : No warppoints
Format settings, Matrix : Default (H.263)
Codec ID : XVID
Codec ID/Hint : XviD
Duration : 1h 22mn
Bit rate : 3 962 Kbps
Width : 1 280 pixels
Height : 718 pixels
Display aspect ratio : 16:9
Frame rate : 24.000 fps
Color space : YUV
Chroma subsampling : 4:2:0
Bit depth : 8 bits
Scan type : Progressive
Compression mode : Lossy
Bits/(Pixel*Frame) : 0.180
Stream size : 2.27 GiB (91%)
Writing library : XviD 1.2.1 (UTC 2008-12-04)

Audio
ID : 1
Format : AC-3
Format/Info : Audio Coding 3
Mode extension : CM (complete main)
Format settings, Endianness : Big
Codec ID : 2000
Duration : 1h 22mn
Bit rate mode : Constant
Bit rate : 384 Kbps
Channel(s) : 6 channels
Channel positions : Front: L C R, Side: L R, LFE
Sampling rate : 48.0 KHz
Bit depth : 16 bits
Compression mode : Lossy
Stream size : 225 MiB (9%)
Alignment : Split accross interleaves
Interleave, duration : 42 ms (1.00 video frame)
Interleave, preload duration : 500 ms



[/mediainfo]

]]></description>
            <category>Movies</category>
            <author>http://kickass.to/user/TryMeS/</author>        <link>http://kickass.to/wings-sky-force-heroes-2014-720p-webrip-xvid-ac3-legi0n-t9310631.html</link>
            <guid>http://kickass.to/wings-sky-force-heroes-2014-720p-webrip-xvid-ac3-legi0n-t9310631.html</guid>
            <pubDate>Wed, 09 Jul 2014 09:33:56 +0000</pubDate>
            <torrent:contentLength>2708192608</torrent:contentLength>
            <torrent:infoHash>C63BE49F59FFA6350EBB577C6E54D6A7E59A3750</torrent:infoHash>
            <torrent:magnetURI><![CDATA[magnet:?xt=urn:btih:C63BE49F59FFA6350EBB577C6E54D6A7E59A3750&dn=wings+sky+force+heroes+2014+720p+webrip+xvid+ac3+legi0n&tr=udp%3A%2F%2F12.rarbg.me%3A80%2Fannounce&tr=udp%3A%2F%2Fopen.demonii.com%3A1337]]></torrent:magnetURI>
            <torrent:seeds>8</torrent:seeds>
            <torrent:peers>20</torrent:peers>
            <torrent:verified>1</torrent:verified>
            <torrent:fileName>wings.sky.force.heroes.2014.720p.webrip.xvid.ac3.legi0n.torrent</torrent:fileName>
            <enclosure url="http://torcache.net/torrent/C63BE49F59FFA6350EBB577C6E54D6A7E59A3750.torrent?title=[kickass.to]wings.sky.force.heroes.2014.720p.webrip.xvid.ac3.legi0n" length="2708192608" type="application/x-bittorrent" />
        </item>
        <item>
            <title>Yevadu [2014] Bluray 1080p Music Videos (Telugu) - @V!</title>
            <category>Movies - Music videos</category>
            <author>http://kickass.to/user/eswarasai/</author>        <link>http://kickass.to/yevadu-2014-bluray-1080p-music-videos-telugu-v-t9310630.html</link>
            <guid>http://kickass.to/yevadu-2014-bluray-1080p-music-videos-telugu-v-t9310630.html</guid>
            <pubDate>Wed, 09 Jul 2014 09:33:26 +0000</pubDate>
            <torrent:contentLength>2464432305</torrent:contentLength>
            <torrent:infoHash>7055EF9EFBE8A45F1BFC4F31E206E89CCD0F1866</torrent:infoHash>
            <torrent:magnetURI><![CDATA[magnet:?xt=urn:btih:7055EF9EFBE8A45F1BFC4F31E206E89CCD0F1866&dn=yevadu+2014+bluray+1080p+music+videos+telugu+v&tr=udp%3A%2F%2Fopen.demonii.com%3A1337%2Fannounce]]></torrent:magnetURI>
            <torrent:seeds>5</torrent:seeds>
            <torrent:peers>13</torrent:peers>
            <torrent:verified>0</torrent:verified>
            <torrent:fileName>yevadu.2014.bluray.1080p.music.videos.telugu.v.torrent</torrent:fileName>
            <enclosure url="http://torcache.net/torrent/7055EF9EFBE8A45F1BFC4F31E206E89CCD0F1866.torrent?title=[kickass.to]yevadu.2014.bluray.1080p.music.videos.telugu.v" length="2464432305" type="application/x-bittorrent" />
        </item>
        <item>
            <title>Wings.Sky Force.Heroes.2014.720p.WEBRip.AC3.x264-LEGi0N</title>
            <description><![CDATA[Wings.Sky Force.Heroes.2014.720p.WEBRip.AC3.x264-LEGi0N

[img]//dyncdn.me/posters2/b/b513121791d4f11866736b3b7b35faa56dc2f968.jpg[/img]



[mediainfo]


Format : Matroska
Format version : Version 4 / Version 2
File size : 1.65 GiB
Duration : 1h 22mn
Overall bit rate : 2 886 Kbps
Encoded date : UTC 2014-07-09 00:05:35
Writing application : mkvmerge v7.0.0 (\&#039;Where We Going\&#039;) 64bit built on Jun 9 2014 15:16:27
Writing library : libebml v1.3.0 + libmatroska v1.4.1
DURATION : 01:21:51.105000000
NUMBER_OF_FRAMES : 1688
NUMBER_OF_BYTES : 84455
_STATISTICS_WRITING_APP : mkvmerge v7.0.0 (\&#039;Where We Going\&#039;) 64bit built on Jun 9 2014 15:16:27
_STATISTICS_WRITING_DATE_UTC : 2014-07-09 00:05:35
_STATISTICS_TAGS : BPS DURATION NUMBER_OF_FRAMES NUMBER_OF_BYTES

Video
ID : 1
Format : AVC
Format/Info : Advanced Video Codec
Format profile : Main@L3.1
Format settings, CABAC : Yes
Format settings, ReFrames : 4 frames
Codec ID : V_MPEG4/ISO/AVC
Duration : 1h 22mn
Bit rate : 2 500 Kbps
Width : 1 280 pixels
Height : 718 pixels
Display aspect ratio : 16:9
Frame rate mode : Constant
Frame rate : 24.000 fps
Color space : YUV
Chroma subsampling : 4:2:0
Bit depth : 8 bits
Scan type : Progressive
Bits/(Pixel*Frame) : 0.113
Stream size : 1.40 GiB (85%)
Writing library : x264 core 142 r2431 ac76440
Encoding settings : cabac=1 / ref=1 / deblock=1:1:1 / analyse=0x1:0x111 / me=umh / subme=7 / psy=1 / psy_rd=0.40:0.00 / mixed_ref=0 / me_range=16 / chroma_me=1 / trellis=2 / 8x8dct=0 / cqm=0 / deadzone=21,11 / fast_pskip=1 / chroma_qp_offset=-2 / threads=12 / lookahead_threads=3 / sliced_threads=0 / nr=0 / decimate=1 / interlaced=0 / bluray_compat=0 / constrained_intra=0 / bframes=5 / b_pyramid=2 / b_adapt=2 / b_bias=0 / direct=1 / weightb=1 / open_gop=0 / weightp=2 / keyint=240 / keyint_min=24 / scenecut=40 / intra_refresh=0 / rc_lookahead=10 / rc=2pass / mbtree=1 / bitrate=2500 / ratetol=1.0 / qcomp=0.60 / qpmin=0 / qpmax=69 / qpstep=4 / cplxblur=20.0 / qblur=0.5 / vbv_maxrate=14000 / vbv_bufsize=14000 / nal_hrd=none / filler=0 / ip_ratio=1.40 / aq=1:0.60
Language : English
Default : Yes
Forced : No
DURATION : 01:22:00.334000000
NUMBER_OF_FRAMES : 118088
NUMBER_OF_BYTES : 1537720892
_STATISTICS_WRITING_APP : mkvmerge v7.0.0 (\&#039;Where We Going\&#039;) 64bit built on Jun 9 2014 15:16:27
_STATISTICS_WRITING_DATE_UTC : 2014-07-09 00:05:35
_STATISTICS_TAGS : BPS DURATION NUMBER_OF_FRAMES NUMBER_OF_BYTES
Color primaries : BT.709
Transfer characteristics : BT.709
Matrix coefficients : BT.709

Audio
ID : 2
Format : AC-3
Format/Info : Audio Coding 3
Mode extension : CM (complete main)
Format settings, Endianness : Big
Codec ID : A_AC3
Duration : 1h 22mn
Bit rate mode : Constant
Bit rate : 384 Kbps
Channel(s) : 6 channels
Channel positions : Front: L C R, Side: L R, LFE
Sampling rate : 48.0 KHz
Bit depth : 16 bits
Compression mode : Lossy
Stream size : 225 MiB (13%)
Language : English
Default : Yes
Forced : No

Text
ID : 3
Format : UTF-8
Codec ID : S_TEXT/UTF8
Codec ID/Info : UTF-8 Plain Text
Language : English
Default : Yes
Forced : No




[/mediainfo]

]]></description>
            <category>Movies</category>
            <author>http://kickass.to/user/TryMeS/</author>        <link>http://kickass.to/wings-sky-force-heroes-2014-720p-webrip-ac3-x264-legi0n-t9310629.html</link>
            <guid>http://kickass.to/wings-sky-force-heroes-2014-720p-webrip-ac3-x264-legi0n-t9310629.html</guid>
            <pubDate>Wed, 09 Jul 2014 09:33:06 +0000</pubDate>
            <torrent:contentLength>1790083258</torrent:contentLength>
            <torrent:infoHash>B513121791D4F11866736B3B7B35FAA56DC2F968</torrent:infoHash>
            <torrent:magnetURI><![CDATA[magnet:?xt=urn:btih:B513121791D4F11866736B3B7B35FAA56DC2F968&dn=wings+sky+force+heroes+2014+720p+webrip+ac3+x264+legi0n&tr=udp%3A%2F%2F12.rarbg.me%3A80%2Fannounce&tr=udp%3A%2F%2Fopen.demonii.com%3A1337]]></torrent:magnetURI>
            <torrent:seeds>7</torrent:seeds>
            <torrent:peers>22</torrent:peers>
            <torrent:verified>1</torrent:verified>
            <torrent:fileName>wings.sky.force.heroes.2014.720p.webrip.ac3.x264.legi0n.torrent</torrent:fileName>
            <enclosure url="http://torcache.net/torrent/B513121791D4F11866736B3B7B35FAA56DC2F968.torrent?title=[kickass.to]wings.sky.force.heroes.2014.720p.webrip.ac3.x264.legi0n" length="1790083258" type="application/x-bittorrent" />
        </item>
        <item>
            <title>Transcendence 2014 BRRip XviD AC3-SANTi</title>
            <description><![CDATA[Transcendence 2014 BRRip XviD AC3-SANTi

[img]//dyncdn.me/posters2/9/9464f75f082c7f9cbe85afb80764122dabde82fb.jpg[/img]

Title: Transcendence (2014)
IMDB Rating: 6.4/10
Genres: Drama , Mystery , Thriller
Actors: Johnny Depp , Rebecca Hall , Paul Bettany , Cillian Murphy , Kate Mara , Cole Hauser , Morgan Freeman , Clifton Collins Jr. , Cory Hardrict , Falk Hentschel , Josh Stewart , Luce Rains , Fernando Chien , Steven Liu , Xander Berkeley
Runtime: 119
Year: 2014
Plot:
Dr. Will Caster (Johnny Depp) is the foremost researcher in the field of Artificial Intelligence| working to create a sentient machine that combines the collective
intelligence of everything ever known with the full range of human emotions. His highly controversial experiments have made him famous| but they have also made him
the prime target of anti-technology extremists who will do whatever it takes to stop him. However| in their attempt to destroy Will| they inadvertently become the
catalyst for him to succeed-to be a participant in his own transcendence. For his wife Evelyn (Rebecca Hall) and best friend Max Waters (Paul Bettany)| both fellow
researchers| the question is not if they can...but if they should. Their worst fears are realized as Will&#039;s thirst for knowledge evolves into a seemingly omnipresent
quest for power| to what end is unknown. The only thing that is becoming terrifyingly clear is there may be no way to stop him.


[mediainfo]


Format : AVI
Format/Info : Audio Video Interleave
File size : 1.74 GiB
Duration : 1h 59mn
Overall bit rate : 2 083 Kbps
Writing application : VirtualDubMod 1.5.10.3 | www.virtualdub-fr.org || (build 2550/release)
Writing library : VirtualDubMod build 2550/release

Video
ID : 0
Format : MPEG-4 Visual
Format profile : Advanced Simple@L5
Format settings, BVOP : 3
Format settings, QPel : No
Format settings, GMC : No warppoints
Format settings, Matrix : Default (MPEG)
Codec ID : XVID
Codec ID/Hint : XviD
Duration : 1h 59mn
Bit rate : 1 626 Kbps
Width : 720 pixels
Height : 304 pixels
Display aspect ratio : 2.35:1
Frame rate : 23.976 fps
Color space : YUV
Chroma subsampling : 4:2:0
Bit depth : 8 bits
Scan type : Progressive
Compression mode : Lossy
Bits/(Pixel*Frame) : 0.310
Stream size : 1.35 GiB (78%)
Writing library : XviD 1.2.1 (UTC 2008-12-04)

Audio
ID : 1
Format : AC-3
Format/Info : Audio Coding 3
Mode extension : CM (complete main)
Format settings, Endianness : Big
Codec ID : 2000
Duration : 1h 59mn
Bit rate mode : Constant
Bit rate : 448 Kbps
Channel(s) : 6 channels
Channel positions : Front: L C R, Side: L R, LFE
Sampling rate : 48.0 KHz
Bit depth : 16 bits
Compression mode : Lossy
Stream size : 382 MiB (22%)
Alignment : Split accross interleaves
Interleave, duration : 42 ms (1.00 video frame)
Interleave, preload duration : 500 ms



[/mediainfo]

]]></description>
            <category>Movies</category>
            <author>http://kickass.to/user/TryMeS/</author>        <link>http://kickass.to/transcendence-2014-brrip-xvid-ac3-santi-t9310623.html</link>
            <guid>http://kickass.to/transcendence-2014-brrip-xvid-ac3-santi-t9310623.html</guid>
            <pubDate>Wed, 09 Jul 2014 09:31:57 +0000</pubDate>
            <torrent:contentLength>1863756616</torrent:contentLength>
            <torrent:infoHash>9464F75F082C7F9CBE85AFB80764122DABDE82FB</torrent:infoHash>
            <torrent:magnetURI><![CDATA[magnet:?xt=urn:btih:9464F75F082C7F9CBE85AFB80764122DABDE82FB&dn=transcendence+2014+brrip+xvid+ac3+santi&tr=udp%3A%2F%2F12.rarbg.me%3A80%2Fannounce&tr=udp%3A%2F%2Fopen.demonii.com%3A1337]]></torrent:magnetURI>
            <torrent:seeds>6</torrent:seeds>
            <torrent:peers>22</torrent:peers>
            <torrent:verified>1</torrent:verified>
            <torrent:fileName>transcendence.2014.brrip.xvid.ac3.santi.torrent</torrent:fileName>
            <enclosure url="http://torcache.net/torrent/9464F75F082C7F9CBE85AFB80764122DABDE82FB.torrent?title=[kickass.to]transcendence.2014.brrip.xvid.ac3.santi" length="1863756616" type="application/x-bittorrent" />
        </item>
        <item>
            <title>The.Day.of.the.Beast.1995.720p.GER.BluRay.DD5.1.x264-NoVA</title>
            <description><![CDATA[The.Day.of.the.Beast.1995.720p.GER.BluRay.DD5.1.x264-NoVA

[img]//dyncdn.me/posters2/1/183f486ffdd177424b65cf8a816990b429c23acf.jpg[/img]

Title: The Day of the Beast (1995)
IMDB Rating: 7.4/10
Genres: Action , Comedy , Crime , Horror , Thriller
Actors: Álex Angulo , Armando De Razza , Santiago Segura , Terele Pávez , Nathalie Seseña , Maria Grazia Cucinotta , Gianni Ippoliti , Jaime Blanch , David Pinilla , Antonio Dechent , Ignacio Carreño , Saturnino García , El Gran Wyoming , Pololo , Higinio Barbero
Runtime: 103
Year: 1995
Plot:
A basque priest finds by means of a cabalistic study of the bible that the anti-christ is going to be born on Christmas day in Madrid. Helped by a heavy-metal fan
and by the showman of a TV esoteric program| he will try to invoke the devil to find out the place of birth and kill the baby.


[mediainfo]


Format : Matroska
Format version : Version 2
File size : 7.29 GiB
Duration : 1h 43mn
Overall bit rate : 10.1 Mbps
Encoded date : UTC 2014-07-04 15:26:19
Writing application : mkvmerge v7.0.0 (\&#039;Where We Going\&#039;) 32bit built on Jun 9 2014 15:08:34
Writing library : libebml v1.3.0 + libmatroska v1.4.1
DURATION : 01:41:02.834000000
NUMBER_OF_FRAMES : 1725
NUMBER_OF_BYTES : 8584947
_STATISTICS_WRITING_APP : mkvmerge v7.0.0 (\&#039;Where We Going\&#039;) 32bit built on Jun 9 2014 15:08:34
_STATISTICS_WRITING_DATE_UTC : 2014-07-04 15:26:19
_STATISTICS_TAGS : BPS DURATION NUMBER_OF_FRAMES NUMBER_OF_BYTES

Video
ID : 1
Format : AVC
Format/Info : Advanced Video Codec
Format profile : High@L4.1
Format settings, CABAC : Yes
Format settings, ReFrames : 9 frames
Codec ID : V_MPEG4/ISO/AVC
Duration : 1h 43mn
Bit rate : 9 400 Kbps
Width : 1 280 pixels
Height : 692 pixels
Display aspect ratio : 1.85:1
Frame rate mode : Constant
Frame rate : 24.000 fps
Color space : YUV
Chroma subsampling : 4:2:0
Bit depth : 8 bits
Scan type : Progressive
Bits/(Pixel*Frame) : 0.442
Stream size : 6.68 GiB (92%)
Writing library : x264 core 142 r2431+42 c69a006 tMod [8-bit@4:2:0 X86_64]
Encoding settings : cabac=1 / ref=9 / deblock=1:-3:-3 / analyse=0x3:0x113 / me=umh / subme=11 / psy=1 / fade_compensate=0.00 / psy_rd=1.00:0.00 / mixed_ref=1 / me_range=32 / chroma_me=1 / trellis=2 / 8x8dct=1 / cqm=0 / deadzone=21,11 / fast_pskip=0 / chroma_qp_offset=-2 / threads=12 / lookahead_threads=2 / sliced_threads=0 / nr=0 / decimate=0 / interlaced=0 / bluray_compat=0 / constrained_intra=0 / fgo=0 / bframes=8 / b_pyramid=2 / b_adapt=2 / b_bias=0 / direct=3 / weightb=1 / open_gop=0 / weightp=2 / keyint=240 / keyint_min=24 / scenecut=40 / intra_refresh=0 / rc_lookahead=40 / rc=2pass / mbtree=0 / bitrate=9400 / ratetol=1.0 / qcomp=0.60 / qpmin=0:0:0 / qpmax=69:69:69 / qpstep=4 / cplxblur=20.0 / qblur=0.5 / vbv_maxrate=50000 / vbv_bufsize=65000 / nal_hrd=none / filler=0 / ip_ratio=1.40 / pb_ratio=1.30 / aq=4:1.00 / aq-sensitivity=10.00 / aq-factor=1.00:1.00:1.00 / aq2=0 / aq3=0
Default : Yes
Forced : No

Audio
ID : 2
Format : AC-3
Format/Info : Audio Coding 3
Mode extension : CM (complete main)
Format settings, Endianness : Big
Codec ID : A_AC3
Duration : 1h 43mn
Bit rate mode : Constant
Bit rate : 640 Kbps
Channel(s) : 6 channels
Channel positions : Front: L C R, Side: L R, LFE
Sampling rate : 48.0 KHz
Bit depth : 16 bits
Compression mode : Lossy
Stream size : 475 MiB (6%)
Default : Yes
Forced : No

Text #1
ID : 3
Format : UTF-8
Codec ID : S_TEXT/UTF8
Codec ID/Info : UTF-8 Plain Text
Language : English
Default : Yes
Forced : No

Text #2
ID : 4
Format : UTF-8
Codec ID : S_TEXT/UTF8
Codec ID/Info : UTF-8 Plain Text
Language : Chinese
Default : No
Forced : No

Text #3
ID : 5
Format : PGS
Muxing mode : zlib
Codec ID : S_HDMV/PGS
Codec ID/Info : The same subtitle format used on BDs/HD-DVDs
Language : German
Default : No
Forced : No

Text #4
ID : 6
Format : PGS
Muxing mode : zlib
Codec ID : S_HDMV/PGS
Codec ID/Info : The same subtitle format used on BDs/HD-DVDs
Language : Spanish
Default : No
Forced : No



[/mediainfo]

]]></description>
            <category>Movies</category>
            <author>http://kickass.to/user/TryMeS/</author>        <link>http://kickass.to/the-day-of-the-beast-1995-720p-ger-bluray-dd5-1-x264-nova-t9310619.html</link>
            <guid>http://kickass.to/the-day-of-the-beast-1995-720p-ger-bluray-dd5-1-x264-nova-t9310619.html</guid>
            <pubDate>Wed, 09 Jul 2014 09:30:57 +0000</pubDate>
            <torrent:contentLength>7940121561</torrent:contentLength>
            <torrent:infoHash>183F486FFDD177424B65CF8A816990B429C23ACF</torrent:infoHash>
            <torrent:magnetURI><![CDATA[magnet:?xt=urn:btih:183F486FFDD177424B65CF8A816990B429C23ACF&dn=the+day+of+the+beast+1995+720p+ger+bluray+dd5+1+x264+nova&tr=udp%3A%2F%2F12.rarbg.me%3A80%2Fannounce&tr=udp%3A%2F%2Fopen.demonii.com%3A1337]]></torrent:magnetURI>
            <torrent:seeds>3</torrent:seeds>
            <torrent:peers>8</torrent:peers>
            <torrent:verified>1</torrent:verified>
            <torrent:fileName>the.day.of.the.beast.1995.720p.ger.bluray.dd5.1.x264.nova.torrent</torrent:fileName>
            <enclosure url="http://torcache.net/torrent/183F486FFDD177424B65CF8A816990B429C23ACF.torrent?title=[kickass.to]the.day.of.the.beast.1995.720p.ger.bluray.dd5.1.x264.nova" length="7940121561" type="application/x-bittorrent" />
        </item>
        <item>
            <title>Yeto Vellipoyindhi Manasu [2012] BDrip 1080p Music Videos (Telugu) - @V!</title>
            <category>Movies - Music videos</category>
            <author>http://kickass.to/user/eswarasai/</author>        <link>http://kickass.to/yeto-vellipoyindhi-manasu-2012-bdrip-1080p-music-videos-telugu-v-t9310618.html</link>
            <guid>http://kickass.to/yeto-vellipoyindhi-manasu-2012-bdrip-1080p-music-videos-telugu-v-t9310618.html</guid>
            <pubDate>Wed, 09 Jul 2014 09:30:48 +0000</pubDate>
            <torrent:contentLength>1448160911</torrent:contentLength>
            <torrent:infoHash>54F638BB3643A491B22CB1A6B9CAC82E015AD9C6</torrent:infoHash>
            <torrent:magnetURI><![CDATA[magnet:?xt=urn:btih:54F638BB3643A491B22CB1A6B9CAC82E015AD9C6&dn=yeto+vellipoyindhi+manasu+2012+bdrip+1080p+music+videos+telugu+v&tr=udp%3A%2F%2Fopen.demonii.com%3A1337%2Fannounce]]></torrent:magnetURI>
            <torrent:seeds>3</torrent:seeds>
            <torrent:peers>3</torrent:peers>
            <torrent:verified>0</torrent:verified>
            <torrent:fileName>yeto.vellipoyindhi.manasu.2012.bdrip.1080p.music.videos.telugu.v.torrent</torrent:fileName>
            <enclosure url="http://torcache.net/torrent/54F638BB3643A491B22CB1A6B9CAC82E015AD9C6.torrent?title=[kickass.to]yeto.vellipoyindhi.manasu.2012.bdrip.1080p.music.videos.telugu.v" length="1448160911" type="application/x-bittorrent" />
        </item>
        <item>
            <title>The.Boy.with.the.Cuckoo.Clock.Heart.2013.720p.BRRiP.XViD.AC3-LEGi0N</title>
            <description><![CDATA[The.Boy.with.the.Cuckoo.Clock.Heart.2013.720p.BRRiP.XViD.AC3-LEGi0N

[img]//dyncdn.me/posters2/8/859d7f1a5968a3297f476a62d6619d4f884a862c.jpg[/img]

Title: The Boy with the Cuckoo-Clock Heart (2013)
IMDB Rating: 7.2/10
Genres: Animation , Adventure , Drama , Fantasy , Musical , Romance
Actors: Mathias Malzieu , Olivia Ruiz , Grand Corps Malade , Jean Rochefort , Rossy de Palma , Babet , Marie Vincent , Emily Loizeau , Arthur H. , Dani , Alain Bashung , Cali , Chloé Renaud , Moon Dailly , Samantha Barks
Runtime: 94
Year: 2013
Plot:
Edinburgh| late 19th century. Little Jack is born on a day so cold that his heart remains frozen. Madeleine the midwife replaces his heart with a cuckoo-clock. It
will work| as long as Jack follows the rules| mainly not falling in love. But his encounter with a fiery-eyed girl singing on a street corner and his decision to
chase after her will test the resistance of his makeshift heart to the breaking point... Jack and the Cuckoo-Clock Heart is a magnificent love story set in an
exciting period full of fabulous inventions| eccentric characters and fantastic adventures. Adapted by Mathias Malzieu from his best-selling novel and the
gold-selling album by his band Dionysos| this superbly animated movie is about passion and acceptance of others.


[mediainfo]


Format : AVI
Format/Info : Audio Video Interleave
Format profile : OpenDML
File size : 2.82 GiB
Duration : 1h 32mn
Overall bit rate : 4 370 Kbps
Writing application : VirtualDubMod 1.5.10.2 (build 2540/release)
Writing library : VirtualDubMod build 2540/release

Video
ID : 0
Format : MPEG-4 Visual
Format profile : Advanced Simple@L5
Format settings, BVOP : 2
Format settings, QPel : No
Format settings, GMC : No warppoints
Format settings, Matrix : Default (H.263)
Codec ID : XVID
Codec ID/Hint : XviD
Duration : 1h 32mn
Bit rate : 3 975 Kbps
Width : 1 280 pixels
Height : 720 pixels
Display aspect ratio : 16:9
Frame rate : 24.000 fps
Color space : YUV
Chroma subsampling : 4:2:0
Bit depth : 8 bits
Scan type : Progressive
Compression mode : Lossy
Bits/(Pixel*Frame) : 0.180
Stream size : 2.57 GiB (91%)
Writing library : XviD 1.2.1 (UTC 2008-12-04)

Audio
ID : 1
Format : AC-3
Format/Info : Audio Coding 3
Mode extension : CM (complete main)
Format settings, Endianness : Big
Codec ID : 2000
Duration : 1h 32mn
Bit rate mode : Constant
Bit rate : 384 Kbps
Channel(s) : 6 channels
Channel positions : Front: L C R, Side: L R, LFE
Sampling rate : 48.0 KHz
Bit depth : 16 bits
Compression mode : Lossy
Stream size : 254 MiB (9%)
Alignment : Split accross interleaves
Interleave, duration : 42 ms (1.00 video frame)
Interleave, preload duration : 500 ms



[/mediainfo]

]]></description>
            <category>Movies</category>
            <author>http://kickass.to/user/TryMeS/</author>        <link>http://kickass.to/the-boy-with-the-cuckoo-clock-heart-2013-720p-brrip-xvid-ac3-legi0n-t9310609.html</link>
            <guid>http://kickass.to/the-boy-with-the-cuckoo-clock-heart-2013-720p-brrip-xvid-ac3-legi0n-t9310609.html</guid>
            <pubDate>Wed, 09 Jul 2014 09:29:57 +0000</pubDate>
            <torrent:contentLength>3059159701</torrent:contentLength>
            <torrent:infoHash>859D7F1A5968A3297F476A62D6619D4F884A862C</torrent:infoHash>
            <torrent:magnetURI><![CDATA[magnet:?xt=urn:btih:859D7F1A5968A3297F476A62D6619D4F884A862C&dn=the+boy+with+the+cuckoo+clock+heart+2013+720p+brrip+xvid+ac3+legi0n&tr=udp%3A%2F%2F12.rarbg.me%3A80%2Fannounce&tr=udp%3A%2F%2Fopen.demonii.com%3A1337]]></torrent:magnetURI>
            <torrent:seeds>6</torrent:seeds>
            <torrent:peers>18</torrent:peers>
            <torrent:verified>1</torrent:verified>
            <torrent:fileName>the.boy.with.the.cuckoo.clock.heart.2013.720p.brrip.xvid.ac3.legi0n.torrent</torrent:fileName>
            <enclosure url="http://torcache.net/torrent/859D7F1A5968A3297F476A62D6619D4F884A862C.torrent?title=[kickass.to]the.boy.with.the.cuckoo.clock.heart.2013.720p.brrip.xvid.ac3.legi0n" length="3059159701" type="application/x-bittorrent" />
        </item>
        <item>
            <title>Attarintiki Daaredi [2013] Bluray 720p Music Videos (Telugu) - @V!</title>
            <category>Movies - Music videos</category>
            <author>http://kickass.to/user/eswarasai/</author>        <link>http://kickass.to/attarintiki-daaredi-2013-bluray-720p-music-videos-telugu-v-t9310607.html</link>
            <guid>http://kickass.to/attarintiki-daaredi-2013-bluray-720p-music-videos-telugu-v-t9310607.html</guid>
            <pubDate>Wed, 09 Jul 2014 09:29:34 +0000</pubDate>
            <torrent:contentLength>1383958083</torrent:contentLength>
            <torrent:infoHash>FE4F2D41A569C367F7D967F27D83E5F6EA616E84</torrent:infoHash>
            <torrent:magnetURI><![CDATA[magnet:?xt=urn:btih:FE4F2D41A569C367F7D967F27D83E5F6EA616E84&dn=attarintiki+daaredi+2013+bluray+720p+music+videos+telugu+v&tr=udp%3A%2F%2Fopen.demonii.com%3A1337%2Fannounce]]></torrent:magnetURI>
            <torrent:seeds>1</torrent:seeds>
            <torrent:peers>3</torrent:peers>
            <torrent:verified>0</torrent:verified>
            <torrent:fileName>attarintiki.daaredi.2013.bluray.720p.music.videos.telugu.v.torrent</torrent:fileName>
            <enclosure url="http://torcache.net/torrent/FE4F2D41A569C367F7D967F27D83E5F6EA616E84.torrent?title=[kickass.to]attarintiki.daaredi.2013.bluray.720p.music.videos.telugu.v" length="1383958083" type="application/x-bittorrent" />
        </item>
        <item>
            <title>Sabotage.2014.720p.HDRip.XviD.AC3-AQOS</title>
            <description><![CDATA[Sabotage.2014.720p.HDRip.XviD.AC3-AQOS

[img]//dyncdn.me/posters2/0/0b0d2fa9a1f54d8cfeecbfa31cacfa343392ad43.jpg[/img]

Title: Sabotage (2014)
IMDB Rating: 6.2/10
Genres: Action , Crime , Drama , Thriller
Actors: Arnold Schwarzenegger , Sam Worthington , Joe Manganiello , Josh Holloway , Terrence Howard , Max Martini , Kevin Vance , Mark Schlegel , Ned Yousef , Mireille Enos , Maurice Compte , Martin Donovan , Michael Monks , Nick Chacon , Tim Ware
Runtime: 109
Year: 2014
Plot:
Members of an elite DEA task force find themselves being taken down one by one after they rob a drug cartel safe house.


[mediainfo]


Format : AVI
Format/Info : Audio Video Interleave
Format profile : OpenDML
Format settings : rec
File size : 2.60 GiB
Duration : 1h 49mn
Overall bit rate : 3 399 Kbps
Writing application : AVI-Mux GUI 1.17.8.3, Feb 16 201019:42:50

Video
ID : 0
Format : MPEG-4 Visual
Format profile : Advanced Simple@L5
Format settings, BVOP : 2
Format settings, QPel : No
Format settings, GMC : No warppoints
Format settings, Matrix : Default (H.263)
Codec ID : XVID
Codec ID/Hint : XviD
Duration : 1h 49mn
Bit rate : 3 009 Kbps
Width : 1 280 pixels
Height : 688 pixels
Display aspect ratio : 1.85:1
Frame rate : 23.976 fps
Color space : YUV
Chroma subsampling : 4:2:0
Bit depth : 8 bits
Scan type : Progressive
Compression mode : Lossy
Bits/(Pixel*Frame) : 0.143
Stream size : 2.31 GiB (89%)
Writing library : XviD 1.2.1 (UTC 2008-12-04)

Audio
ID : 1
Format : AC-3
Format/Info : Audio Coding 3
Mode extension : CM (complete main)
Format settings, Endianness : Big
Codec ID : 2000
Duration : 1h 49mn
Bit rate mode : Constant
Bit rate : 384 Kbps
Channel(s) : 6 channels
Channel positions : Front: L C R, Side: L R, LFE
Sampling rate : 48.0 KHz
Bit depth : 16 bits
Compression mode : Lossy
Stream size : 301 MiB (11%)
Alignment : Aligned on interleaves
Interleave, duration : 64 ms (1.53 video frames)
Interleave, preload duration : 192 ms
Title : Sabotage (HD) - AQOS




[/mediainfo]

]]></description>
            <category>Movies</category>
            <author>http://kickass.to/user/TryMeS/</author>        <link>http://kickass.to/sabotage-2014-720p-hdrip-xvid-ac3-aqos-t9310603.html</link>
            <guid>http://kickass.to/sabotage-2014-720p-hdrip-xvid-ac3-aqos-t9310603.html</guid>
            <pubDate>Wed, 09 Jul 2014 09:27:33 +0000</pubDate>
            <torrent:contentLength>2835792300</torrent:contentLength>
            <torrent:infoHash>0B0D2FA9A1F54D8CFEECBFA31CACFA343392AD43</torrent:infoHash>
            <torrent:magnetURI><![CDATA[magnet:?xt=urn:btih:0B0D2FA9A1F54D8CFEECBFA31CACFA343392AD43&dn=sabotage+2014+720p+hdrip+xvid+ac3+aqos&tr=udp%3A%2F%2F12.rarbg.me%3A80%2Fannounce&tr=udp%3A%2F%2Fopen.demonii.com%3A1337]]></torrent:magnetURI>
            <torrent:seeds>6</torrent:seeds>
            <torrent:peers>34</torrent:peers>
            <torrent:verified>1</torrent:verified>
            <torrent:fileName>sabotage.2014.720p.hdrip.xvid.ac3.aqos.torrent</torrent:fileName>
            <enclosure url="http://torcache.net/torrent/0B0D2FA9A1F54D8CFEECBFA31CACFA343392AD43.torrent?title=[kickass.to]sabotage.2014.720p.hdrip.xvid.ac3.aqos" length="2835792300" type="application/x-bittorrent" />
        </item>
        <item>
            <title>The Color of Paradise (1999) Iranian Movie with Subtitles</title>
            <description><![CDATA[[image=s8BgxEKHCc]]]></description>
            <category>Movies</category>
            <author>http://kickass.to/user/kodoo23/</author>        <link>http://kickass.to/the-color-of-paradise-1999-iranian-movie-with-subtitles-t9310594.html</link>
            <guid>http://kickass.to/the-color-of-paradise-1999-iranian-movie-with-subtitles-t9310594.html</guid>
            <pubDate>Wed, 09 Jul 2014 09:26:13 +0000</pubDate>
            <torrent:contentLength>729394467</torrent:contentLength>
            <torrent:infoHash>9261916BE9923D1BE74EBB5D926B87BDDC002583</torrent:infoHash>
            <torrent:magnetURI><![CDATA[magnet:?xt=urn:btih:9261916BE9923D1BE74EBB5D926B87BDDC002583&dn=the+color+of+paradise+1999+iranian+movie+with+subtitles&tr=udp%3A%2F%2Fopen.demonii.com%3A1337%2Fannounce]]></torrent:magnetURI>
            <torrent:seeds>0</torrent:seeds>
            <torrent:peers>0</torrent:peers>
            <torrent:verified>0</torrent:verified>
            <torrent:fileName>the.color.of.paradise.1999.iranian.movie.with.subtitles.torrent</torrent:fileName>
            <enclosure url="http://torcache.net/torrent/9261916BE9923D1BE74EBB5D926B87BDDC002583.torrent?title=[kickass.to]the.color.of.paradise.1999.iranian.movie.with.subtitles" length="729394467" type="application/x-bittorrent" />
        </item>
        <item>
            <title>Ocho apellidos vascos 2014.720p.BluRay.DD5.1.x264-LolHD</title>
            <description><![CDATA[Ocho apellidos vascos 2014.720p.BluRay.DD5.1.x264-LolHD

[img]//dyncdn.me/posters2/0/09f02abcf68a2a57730efe4c7bd4e12cd29a08ee.jpg[/img]



[mediainfo]


Format : Matroska
Format version : Version 4 / Version 2
File size : 4.76 GiB
Duration : 1h 39mn
Overall bit rate : 6 868 Kbps
Movie name : F2@LolHD
Encoded date : UTC 2014-07-07 00:41:49
Writing application : mkvmerge v7.0.0 (\&#039;Where We Going\&#039;) 64bit built on Jun 9 2014 15:16:27
Writing library : libebml v1.3.0 + libmatroska v1.4.1
DURATION : 01:37:44.859000000
NUMBER_OF_FRAMES : 1628
NUMBER_OF_BYTES : 48855
_STATISTICS_WRITING_APP : mkvmerge v7.0.0 (\&#039;Where We Going\&#039;) 64bit built on Jun 9 2014 15:16:27
_STATISTICS_WRITING_DATE_UTC : 2014-07-07 00:41:49
_STATISTICS_TAGS : BPS DURATION NUMBER_OF_FRAMES NUMBER_OF_BYTES

Video
ID : 1
Format : AVC
Format/Info : Advanced Video Codec
Format profile : High@L4.1
Format settings, CABAC : Yes
Format settings, ReFrames : 9 frames
Codec ID : V_MPEG4/ISO/AVC
Duration : 1h 39mn
Bit rate : 6 092 Kbps
Width : 1 280 pixels
Height : 690 pixels
Display aspect ratio : 1.85:1
Frame rate mode : Constant
Frame rate : 23.976 fps
Color space : YUV
Chroma subsampling : 4:2:0
Bit depth : 8 bits
Scan type : Progressive
Bits/(Pixel*Frame) : 0.288
Stream size : 4.22 GiB (89%)
Title : Ocho apellidos vascos 2014
Writing library : x264 core 142 r2431kMod ac76440
Encoding settings : cabac=1 / ref=9 / deblock=1:-3:-3 / analyse=0x3:0x133 / me=umh / subme=10 / psy=1 / fade_compensate=0.00 / psy_rd=1.08:0.00 / mixed_ref=1 / me_range=48 / chroma_me=1 / trellis=2 / 8x8dct=1 / cqm=0 / deadzone=21,11 / fast_pskip=0 / chroma_qp_offset=-2 / threads=6 / lookahead_threads=1 / sliced_threads=0 / nr=0 / decimate=0 / interlaced=0 / bluray_compat=0 / constrained_intra=0 / fgo=0 / bframes=10 / b_pyramid=2 / b_adapt=2 / b_bias=0 / direct=3 / weightb=1 / open_gop=0 / weightp=2 / keyint=250 / keyint_min=23 / scenecut=40 / intra_refresh=0 / rc_lookahead=60 / rc=crf / mbtree=0 / crf=14.8000 / qcomp=0.70 / qpmin=0 / qpmax=69 / qpstep=4 / vbv_maxrate=38000 / vbv_bufsize=30000 / crf_max=0.0 / nal_hrd=none / filler=0 / ip_ratio=1.17 / pb_ratio=1.12 / aq=1:0.68 / zones=137882,142727,b=0.2
Language : English
Default : Yes
Forced : No
DURATION : 01:39:12.906000000
NUMBER_OF_FRAMES : 142727
NUMBER_OF_BYTES : 4632994037
_STATISTICS_WRITING_APP : mkvmerge v7.0.0 (\&#039;Where We Going\&#039;) 64bit built on Jun 9 2014 15:16:27
_STATISTICS_WRITING_DATE_UTC : 2014-07-07 00:41:49
_STATISTICS_TAGS : BPS DURATION NUMBER_OF_FRAMES NUMBER_OF_BYTES
Color primaries : BT.709
Transfer characteristics : BT.709
Matrix coefficients : BT.709

Audio
ID : 2
Format : AC-3
Format/Info : Audio Coding 3
Mode extension : CM (complete main)
Format settings, Endianness : Big
Codec ID : A_AC3
Duration : 1h 39mn
Bit rate mode : Constant
Bit rate : 640 Kbps
Channel(s) : 6 channels
Channel positions : Front: L C R, Side: L R, LFE
Sampling rate : 48.0 KHz
Bit depth : 16 bits
Compression mode : Lossy
Stream size : 454 MiB (9%)
Title : AC3 5.1@640
Language : Spanish
Default : Yes
Forced : No

Text
ID : 3
Format : UTF-8
Codec ID : S_TEXT/UTF8
Codec ID/Info : UTF-8 Plain Text
Language : English
Default : Yes
Forced : No

Menu
00:00:00.000 : en:00:00:00.000
00:07:09.179 : en:00:07:09.179
00:11:58.343 : en:00:11:58.343
00:17:00.937 : en:00:17:00.937
00:23:22.484 : en:00:23:22.484
00:30:35.667 : en:00:30:35.667
00:36:41.783 : en:00:36:41.783
00:41:02.418 : en:00:41:02.418
00:47:56.499 : en:00:47:56.499
00:53:07.768 : en:00:53:07.768
01:00:32.087 : en:01:00:32.087
01:07:36.511 : en:01:07:36.511
01:14:38.683 : en:01:14:38.683
01:19:02.696 : en:01:19:02.696
01:27:20.694 : en:01:27:20.694
01:35:43.905 : en:01:35:43.905



[/mediainfo]

]]></description>
            <category>Movies</category>
            <author>http://kickass.to/user/TryMeS/</author>        <link>http://kickass.to/ocho-apellidos-vascos-2014-720p-bluray-dd5-1-x264-lolhd-t9310592.html</link>
            <guid>http://kickass.to/ocho-apellidos-vascos-2014-720p-bluray-dd5-1-x264-lolhd-t9310592.html</guid>
            <pubDate>Wed, 09 Jul 2014 09:26:12 +0000</pubDate>
            <torrent:contentLength>5110755944</torrent:contentLength>
            <torrent:infoHash>09F02ABCF68A2A57730EFE4C7BD4E12CD29A08EE</torrent:infoHash>
            <torrent:magnetURI><![CDATA[magnet:?xt=urn:btih:09F02ABCF68A2A57730EFE4C7BD4E12CD29A08EE&dn=ocho+apellidos+vascos+2014+720p+bluray+dd5+1+x264+lolhd&tr=udp%3A%2F%2F12.rarbg.me%3A80%2Fannounce&tr=udp%3A%2F%2Fopen.demonii.com%3A1337]]></torrent:magnetURI>
            <torrent:seeds>4</torrent:seeds>
            <torrent:peers>15</torrent:peers>
            <torrent:verified>1</torrent:verified>
            <torrent:fileName>ocho.apellidos.vascos.2014.720p.bluray.dd5.1.x264.lolhd.torrent</torrent:fileName>
            <enclosure url="http://torcache.net/torrent/09F02ABCF68A2A57730EFE4C7BD4E12CD29A08EE.torrent?title=[kickass.to]ocho.apellidos.vascos.2014.720p.bluray.dd5.1.x264.lolhd" length="5110755944" type="application/x-bittorrent" />
        </item>
        <item>
            <title>Night Mail 2014 720p HDRip x264 AC3-SmY</title>
            <description><![CDATA[Detail:
Title: Night Mail
AKA: Si Wang You Jian
Genre: Horror, Thriller
Release Date: 6 June 2014
Runtime: 92 mins
Director: Li Yu
Link: Movie Douban
Country: China
Language: Mandarin
Subtitles: Chinese Hardcoded

Cast:
Ren Quan, Kimi Qiao, Jessie Zhou, Zhangyang Guoer, Cao Yang, Du Haitao, Bai Yao

Plot:
Zhao Yong Jiu work as a magazine photojournalist has when missing less than a week,
but the police got the news a few months ago, Zhao Yong, had died. At the same time, Zhao Yong related magazines and colleagues began to receive not known who sent the e-mail Suoming various accidents followed hard to detect.
More and more mysterious death related personnel, seems to conceal a hidden secret. The magazine had panic colleagues, they found a terrorist event has already expanded from within the company to which each person\&#039;s life, in the end who the murderer is? There is always a transparent figure of nine weekly care of all core members.


[mediainfo]

Format : Matroska
Format version : Version 4 / Version 2
File size : 2.01 GiB
Duration : 1h 32mn
Overall bit rate : 3 120 Kbps
Encoded date : UTC 2010-02-22 21:41:31
Writing application : mkvmerge v5.9.0 (\&#039;On The Loose\&#039;) built on Dec 9 2012 15:37:01
Writing library : libebml v1.3.0 + libmatroska v1.4.0

Video
ID : 1
Format : AVC
Format/Info : Advanced Video Codec
Format profile : High@L3.1
Format settings, CABAC : Yes
Format settings, ReFrames : 4 frames
Muxing mode : Header stripping
Codec ID : V_MPEG4/ISO/AVC
Duration : 1h 32mn
Bit rate : 3 000 Kbps
Width : 1 280 pixels
Height : 688 pixels
Display aspect ratio : 1.85:1
Frame rate mode : Constant
Frame rate : 30.000 fps
Color space : YUV
Chroma subsampling : 4:2:0
Bit depth : 8 bits
Scan type : Progressive
Bits/(Pixel*Frame) : 0.114
Stream size : 1.88 GiB (94%)
Writing library : x264 core 116 r2074 2641b9e
Encoding settings : cabac=1 / ref=3 / deblock=1:-2:-2 / analyse=0x3:0x113 / me=hex / subme=7 / psy=1 / psy_rd=1.00:0.00 / mixed_ref=1 / me_range=16 / chroma_me=1 / trellis=1 / 8x8dct=1 / cqm=0 / deadzone=21,11 / fast_pskip=1 / chroma_qp_offset=-2 / threads=12 / sliced_threads=0 / nr=0 / decimate=0 / interlaced=0 / bluray_compat=0 / constrained_intra=0 / bframes=3 / b_pyramid=2 / b_adapt=1 / b_bias=0 / direct=1 / weightb=1 / open_gop=0 / weightp=2 / keyint=250 / keyint_min=25 / scenecut=40 / intra_refresh=0 / rc_lookahead=40 / rc=abr / mbtree=1 / bitrate=3000 / ratetol=1.0 / qcomp=0.60 / qpmin=0 / qpmax=69 / qpstep=4 / ip_ratio=1.40 / aq=1:1.00
Language : English
Default : Yes
Forced : No

Audio
ID : 2
Format : AC-3
Format/Info : Audio Coding 3
Mode extension : CM (complete main)
Format settings, Endianness : Big
Muxing mode : Header stripping
Codec ID : A_AC3
Duration : 1h 32mn
Bit rate mode : Constant
Bit rate : 128 Kbps
Channel(s) : 6 channels
Channel positions : Front: L C R, Side: L R, LFE
Sampling rate : 48.0 KHz
Bit depth : 16 bits
Compression mode : Lossy
Delay relative to video : 480ms
Stream size : 84.2 MiB (4%)
Default : Yes
Forced : No

[/mediainfo]

Screens:
[url=http://i.imgur.com/rm80Cvx.png][img]http://i.imgur.com/rm80Cvxl.png[/img][/url]
[url=http://i.imgur.com/P8qjs96.png][img]http://i.imgur.com/P8qjs96l.png[/img][/url]
[url=http://i.imgur.com/bJxRCOa.png][img]http://i.imgur.com/bJxRCOal.png[/img][/url]
[url=http://i.imgur.com/JXG0Iey.png][img]http://i.imgur.com/JXG0Ieyl.png[/img][/url]
[url=http://i.imgur.com/45dA2Vz.png][img]http://i.imgur.com/45dA2Vzl.png[/img][/url]
[url=http://i.imgur.com/B7wPe9L.png][img]http://i.imgur.com/B7wPe9Ll.png[/img][/url]]]></description>
            <category>Movies</category>
            <author>http://kickass.to/user/TryMeS/</author>        <link>http://kickass.to/night-mail-2014-720p-hdrip-x264-ac3-smy-t9310586.html</link>
            <guid>http://kickass.to/night-mail-2014-720p-hdrip-x264-ac3-smy-t9310586.html</guid>
            <pubDate>Wed, 09 Jul 2014 09:24:44 +0000</pubDate>
            <torrent:contentLength>2153019526</torrent:contentLength>
            <torrent:infoHash>52D6AE7C57A586BEB87A9987C71401244A3933E6</torrent:infoHash>
            <torrent:magnetURI><![CDATA[magnet:?xt=urn:btih:52D6AE7C57A586BEB87A9987C71401244A3933E6&dn=night+mail+2014+720p+hdrip+x264+ac3+smy&tr=udp%3A%2F%2F12.rarbg.me%3A80%2Fannounce&tr=udp%3A%2F%2Fopen.demonii.com%3A1337]]></torrent:magnetURI>
            <torrent:seeds>5</torrent:seeds>
            <torrent:peers>23</torrent:peers>
            <torrent:verified>1</torrent:verified>
            <torrent:fileName>night.mail.2014.720p.hdrip.x264.ac3.smy.torrent</torrent:fileName>
            <enclosure url="http://torcache.net/torrent/52D6AE7C57A586BEB87A9987C71401244A3933E6.torrent?title=[kickass.to]night.mail.2014.720p.hdrip.x264.ac3.smy" length="2153019526" type="application/x-bittorrent" />
        </item>
        <item>
            <title>Miss.Granny.2014.1080p.BluRay.x264.DTS-WiKi</title>
            <description><![CDATA[Miss.Granny.2014.1080p.BluRay.x264.DTS-WiKi

[img]//dyncdn.me/posters2/f/f275aef16d612dfc497782f00ff6b9671b1b9bf9.jpg[/img]

Title: Miss Granny (2014)
IMDB Rating: 7.3/10
Genres: Comedy
Actors: Eun-kyung Shim , Mun-hee Na , In-hwan Park , Dong-il Song , Jin-wook Lee
Runtime: 124
Year: 2014
Plot:
A 74-year-old widow realizes she is becoming a burden on her family. She mysteriously regains her physical appearance from the age of 20.


[mediainfo]


Format : Matroska
Format version : Version 1
File size : 11.0 GiB
Duration : 2h 4mn
Overall bit rate : 12.6 Mbps
Encoded date : UTC 2014-07-07 12:53:42
Writing application : mkvmerge v2.2.0 (\&#039;Turn It On Again\&#039;) built on Mar 4 2008 12:58:26
Writing library : libebml v0.7.7 + libmatroska v0.8.1

Video
ID : 1
Format : AVC
Format/Info : Advanced Video Codec
Format profile : High@L4.1
Format settings, CABAC : Yes
Format settings, ReFrames : 4 frames
Codec ID : V_MPEG4/ISO/AVC
Duration : 2h 4mn
Bit rate : 11.1 Mbps
Width : 1 920 pixels
Height : 1 036 pixels
Display aspect ratio : 1.85:1
Frame rate mode : Constant
Frame rate : 23.976 fps
Color space : YUV
Chroma subsampling : 4:2:0
Bit depth : 8 bits
Scan type : Progressive
Bits/(Pixel*Frame) : 0.233
Stream size : 9.42 GiB (86%)
Writing library : x264 core 130 r2273 b3065e6
Encoding settings : cabac=1 / ref=4 / deblock=1:-3:-3 / analyse=0x3:0x133 / me=umh / subme=11 / psy=1 / psy_rd=1.05:0.05 / mixed_ref=1 / me_range=64 / chroma_me=1 / trellis=2 / 8x8dct=1 / cqm=0 / deadzone=21,11 / fast_pskip=0 / chroma_qp_offset=-3 / threads=12 / lookahead_threads=2 / sliced_threads=0 / nr=0 / decimate=1 / interlaced=0 / bluray_compat=0 / constrained_intra=0 / bframes=8 / b_pyramid=2 / b_adapt=2 / b_bias=0 / direct=3 / weightb=1 / open_gop=0 / weightp=2 / keyint=250 / keyint_min=23 / scenecut=40 / intra_refresh=0 / rc_lookahead=60 / rc=2pass / mbtree=1 / bitrate=11091 / ratetol=1.0 / qcomp=0.60 / qpmin=0 / qpmax=69 / qpstep=4 / cplxblur=20.0 / qblur=0.5 / vbv_maxrate=40000 / vbv_bufsize=30000 / nal_hrd=none / ip_ratio=1.40 / aq=1:0.80
Language : English
Default : Yes
Forced : No

Audio
ID : 2
Format : DTS
Format/Info : Digital Theater Systems
Mode : 16
Format settings, Endianness : Big
Codec ID : A_DTS
Duration : 2h 4mn
Bit rate mode : Constant
Bit rate : 1 509 Kbps
Channel(s) : 6 channels
Channel positions : Front: L C R, Side: L R, LFE
Sampling rate : 48.0 KHz
Bit depth : 24 bits
Compression mode : Lossy
Stream size : 1.32 GiB (12%)
Language : Korean
Default : Yes
Forced : No



[/mediainfo]

]]></description>
            <category>Movies</category>
            <author>http://kickass.to/user/TryMeS/</author>        <link>http://kickass.to/miss-granny-2014-1080p-bluray-x264-dts-wiki-t9310581.html</link>
            <guid>http://kickass.to/miss-granny-2014-1080p-bluray-x264-dts-wiki-t9310581.html</guid>
            <pubDate>Wed, 09 Jul 2014 09:23:09 +0000</pubDate>
            <torrent:contentLength>11854402482</torrent:contentLength>
            <torrent:infoHash>F275AEF16D612DFC497782F00FF6B9671B1B9BF9</torrent:infoHash>
            <torrent:magnetURI><![CDATA[magnet:?xt=urn:btih:F275AEF16D612DFC497782F00FF6B9671B1B9BF9&dn=miss+granny+2014+1080p+bluray+x264+dts+wiki&tr=udp%3A%2F%2F12.rarbg.me%3A80%2Fannounce&tr=udp%3A%2F%2Fopen.demonii.com%3A1337]]></torrent:magnetURI>
            <torrent:seeds>4</torrent:seeds>
            <torrent:peers>16</torrent:peers>
            <torrent:verified>1</torrent:verified>
            <torrent:fileName>miss.granny.2014.1080p.bluray.x264.dts.wiki.torrent</torrent:fileName>
            <enclosure url="http://torcache.net/torrent/F275AEF16D612DFC497782F00FF6B9671B1B9BF9.torrent?title=[kickass.to]miss.granny.2014.1080p.bluray.x264.dts.wiki" length="11854402482" type="application/x-bittorrent" />
        </item>
        <item>
            <title>Walking Tall 2004 BRRip Dual Audio 250MB.mkv</title>
            <description><![CDATA[A former U.S. soldier returns to his hometown to find it overrun by crime and corruption, which prompts him to clean house]]></description>
            <category>Movies - Dubbed Movies</category>
            <author>http://kickass.to/user/dairymilk43/</author>        <link>http://kickass.to/walking-tall-2004-brrip-dual-audio-250mb-mkv-t9310580.html</link>
            <guid>http://kickass.to/walking-tall-2004-brrip-dual-audio-250mb-mkv-t9310580.html</guid>
            <pubDate>Wed, 09 Jul 2014 09:22:41 +0000</pubDate>
            <torrent:contentLength>262484795</torrent:contentLength>
            <torrent:infoHash>B81048A248D69EB6701297A0CCFD95A10288358C</torrent:infoHash>
            <torrent:magnetURI><![CDATA[magnet:?xt=urn:btih:B81048A248D69EB6701297A0CCFD95A10288358C&dn=walking+tall+2004+brrip+dual+audio+250mb+mkv&tr=udp%3A%2F%2Fopen.demonii.com%3A1337%2Fannounce]]></torrent:magnetURI>
            <torrent:seeds>0</torrent:seeds>
            <torrent:peers>0</torrent:peers>
            <torrent:verified>0</torrent:verified>
            <torrent:fileName>walking.tall.2004.brrip.dual.audio.250mb.mkv.torrent</torrent:fileName>
            <enclosure url="http://torcache.net/torrent/B81048A248D69EB6701297A0CCFD95A10288358C.torrent?title=[kickass.to]walking.tall.2004.brrip.dual.audio.250mb.mkv" length="262484795" type="application/x-bittorrent" />
        </item>
    </channel>
</rss>
